<svg xmlns="http://www.w3.org/2000/svg" viewBox="0 0 142 32" role="img" aria-labelledby="title">
  <title id="title">GSD</title>
  <rect width="142" height="32" rx="3" fill="#050505"/>
  <g fill="#f7f7f4">
    <path d="M27.1 11.2c-1.2-1.1-2.9-1.8-5.1-1.8-4.3 0-7.1 2.8-7.1 6.7 0 4 2.8 6.7 7.3 6.7 1.9 0 3.5-.4 4.5-1.2v-3.1h-5.2v-3h9v7.7c-2.1 2.2-5 3.4-8.8 3.4-7 0-11.5-4.5-11.5-10.5 0-6 4.7-10.5 11.6-10.5 3.4 0 6.3 1 8.4 3.1l-3.1 2.5Z"/>
    <path d="M47 11.7c-.8-1.5-2.4-2.4-4.6-2.4-2.3 0-3.7.8-3.7 2.1 0 1.4 1.6 1.9 5.4 2.5 5 .8 7.6 2.5 7.6 6.2 0 4-3.8 6.5-9.1 6.5-4.8 0-8.4-1.9-10.1-5.3l4.1-1.8c1 2 3.1 3.2 6.1 3.2 2.6 0 4.2-.8 4.2-2.2 0-1.3-1.4-1.8-5.1-2.4-5.1-.8-7.9-2.5-7.9-6.4 0-3.7 3.5-6.1 8.6-6.1 4.1 0 7.3 1.5 8.7 4.2L47 11.7Z"/>
    <path d="M63.7 6c7.4 0 11.5 3.7 11.5 10.1 0 6.4-4.1 10.1-11.5 10.1h-8.2V6h8.2Zm-3.5 16.3h3.3c4.5 0 6.9-2.2 6.9-6.2s-2.4-6.2-6.9-6.2h-3.3v12.4Z"/>
  </g>
  <g stroke="#f7f7f4" stroke-width="3.2" stroke-linecap="round">
    <path d="M89 9.3h42"/>
    <path d="M89 16h34"/>
    <path d="M89 22.7h42"/>
  </g>
</svg>
